HIERARCHY
ROOT Hips
{
	OFFSET -3.958830 18.904000 13.208200
	CHANNELS 6 Xposition Yposition Zposition Zrotation Yrotation Xrotation 
	JOINT LHipJoint
	{
		OFFSET 0.000000 0.000000 0.000000
		CHANNELS 3 Zrotation Yrotation Xrotation
		JOINT LeftUpLeg
		{
			OFFSET 1.800000 -1.400000 0.085000
			CHANNELS 3 Zrotation Yrotation Xrotation
			JOINT LeftLeg
			{
				OFFSET 2.215000 -6.000000 0.000000
				CHANNELS 3 Zrotation Yrotation Xrotation
				JOINT LeftFoot
				{
					OFFSET 2.500000 -6.900000 0.000000
					CHANNELS 3 Zrotation Yrotation Xrotation
					JOINT LeftToeBase
					{
						OFFSET 0.200000 -0.500000 1.950000
						CHANNELS 3 Zrotation Yrotation Xrotation
						End Site
						{
							OFFSET 0.000000 0.000000 0.000000
						}
					}
				}
			}
		}
	}
	JOINT RHipJoint
	{
		OFFSET 0.000000 0.000000 0.000000
		CHANNELS 3 Zrotation Yrotation Xrotation
		JOINT RightUpLeg
		{
			OFFSET -1.800000 -1.400000 0.085000
			CHANNELS 3 Zrotation Yrotation Xrotation
			JOINT RightLeg
			{
				OFFSET -2.215000 -6.000000 0.000000
				CHANNELS 3 Zrotation Yrotation Xrotation
				JOINT RightFoot
				{
					OFFSET -2.500000 -6.900000 0.000000
					CHANNELS 3 Zrotation Yrotation Xrotation
					JOINT RightToeBase
					{
						OFFSET -0.200000 -0.500000 1.950000
						CHANNELS 3 Zrotation Yrotation Xrotation
						End Site
						{
							OFFSET 0.000000 0.000000 0.000000
						}
					}
				}
			}
		}
	}
	JOINT LowerBack
	{
		OFFSET 0.000000 0.000000 0.000000
		CHANNELS 3 Zrotation Yrotation Xrotation
		JOINT Spine
		{
			OFFSET -0.087000 1.940000 -0.288900
			CHANNELS 3 Zrotation Yrotation Xrotation
			JOINT Spine1
			{
				OFFSET 0.000000 1.950000 0.060000
				CHANNELS 3 Zrotation Yrotation Xrotation
				JOINT Neck
				{
					OFFSET 0.000000 0.000000 0.000000
					CHANNELS 3 Zrotation Yrotation Xrotation
					JOINT Neck1
					{
						OFFSET 0.000000 1.600000 0.340000
						CHANNELS 3 Zrotation Yrotation Xrotation
						JOINT Head
						{
							OFFSET 0.000000 1.667000 -0.240000
							CHANNELS 3 Zrotation Yrotation Xrotation
							End Site
							{
								OFFSET 0.000000 0.000000 0.000000
							}
						}
					}
				}
				JOINT LeftShoulder
				{
					OFFSET 0.000000 0.000000 0.000000
					CHANNELS 3 Zrotation Yrotation Xrotation
					JOINT LeftArm
					{
						OFFSET 2.700000 1.550000 -0.730000
						CHANNELS 3 Zrotation Yrotation Xrotation
						JOINT LeftForeArm
						{
							OFFSET 5.450000 0.000000 0.000000
							CHANNELS 3 Zrotation Yrotation Xrotation
							JOINT LeftHand
							{
								OFFSET 3.450000 0.000000 0.000000
								CHANNELS 3 Zrotation Yrotation Xrotation
								JOINT LeftHandIndex1
								{
									OFFSET 0.750000 0.000000 0.000000
									CHANNELS 3 Zrotation Yrotation Xrotation
									End Site
									{
										OFFSET 0.000000 0.000000 0.000000
									}
								}
							}
						}
					}
				}
				JOINT RightShoulder
				{
					OFFSET 0.000000 0.000000 0.000000
					CHANNELS 3 Zrotation Yrotation Xrotation
					JOINT RightArm
					{
						OFFSET -2.700000 1.550000 -0.730000
						CHANNELS 3 Zrotation Yrotation Xrotation
						JOINT RightForeArm
						{
							OFFSET -5.450000 0.000000 0.000000
							CHANNELS 3 Zrotation Yrotation Xrotation
							JOINT RightHand
							{
								OFFSET -3.450000 0.000000 0.000000
								CHANNELS 3 Zrotation Yrotation Xrotation
								JOINT RightHandIndex1
								{
									OFFSET -0.750000 0.000000 0.000000
									CHANNELS 3 Zrotation Yrotation Xrotation
									End Site
									{
										OFFSET 0.000000 0.000000 0.000000
									}
								}
							}
						}
					}
				}
			}
		}
	}
}
MOTION
Frames: 7
Frame Time: 0.016667
-16.114510 16.791610 3.343500 -2.693679 37.049564 -3.316472 -15.115339 11.995939 3.766082 7.062373 -1.971400 -26.741674 -4.334268 1.918895 -7.709268 -0.648468 2.441489 3.464446 0.513060 0.375440 0.367120 18.457027 -10.261076 3.374581 2.711650 -3.463676 5.091826 10.144742 -4.428408 -1.785117 -0.706678 -4.370730 2.673470 0.306600 -0.188560 -0.103490 -4.840487 -1.126379 -8.517406 22.284635 -0.236199 15.163379 -11.477907 6.025701 -8.129151 0.599082 -8.048950 -10.103229 -16.263787 9.096828 33.302611 11.605340 1.353800 -14.744270 -12.212819 -4.154896 1.041579 13.685924 6.698358 1.410774 11.622922 -13.017977 -0.190327 -3.276857 3.316369 0.520650 -0.371580 0.079960 0.018360 10.024656 12.776143 6.636627 -16.114164 4.593025 -0.883667 1.557055 2.608518 -0.353214 2.787378 -1.285232 -0.178780 0.060490 -0.089750 -0.158720 
-16.106210 16.797020 3.348790 -2.678935 37.145004 -3.425910 -15.130374 12.043397 3.787175 7.132357 -1.962717 -26.546456 -4.423098 1.925659 -7.812978 -0.646809 2.466328 3.449540 0.502060 0.342940 0.370890 18.432965 -10.241629 3.374159 2.680726 -3.482539 5.202605 10.127032 -4.478295 -1.579100 -0.708003 -4.355417 2.675621 0.281210 -0.202320 -0.105500 -4.785476 -1.244571 -8.542881 22.085705 -0.225899 15.544628 -11.319412 6.055899 -8.664323 0.698131 -8.190293 -10.228962 -16.737256 9.106284 33.702200 11.969830 1.143110 -14.963390 -12.197370 -4.211920 1.124877 13.571300 7.084004 1.455758 11.381662 -13.509497 -0.174688 -3.252785 3.324967 0.546370 -0.392600 0.083450 0.007850 9.892399 13.036917 6.626988 -16.944564 3.009241 -0.626956 3.574456 4.812666 -0.073914 2.740129 -1.327506 -0.183410 0.052770 -0.078030 -0.170450 
-16.099710 16.795970 3.358380 -2.568076 37.035772 -3.341119 -15.133300 12.026231 3.796582 7.241871 -1.960483 -26.251957 -4.495218 1.889895 -8.114462 -0.647777 2.476825 3.425292 0.540750 0.383910 0.397850 18.429123 -10.237161 3.373599 2.318053 -3.450186 5.363508 10.455881 -4.505150 -1.697925 -0.727212 -4.387857 2.654314 0.301160 -0.235050 -0.101230 -4.762502 -1.230010 -8.555834 21.637369 0.023824 15.612269 -10.902314 6.119112 -8.736836 0.627466 -8.140444 -9.949369 -16.532098 9.018374 33.436539 12.169150 1.212880 -15.848870 -11.968614 -3.801181 0.937732 13.219464 6.521063 1.415802 10.713831 -13.534027 -0.146914 -3.227756 3.363428 0.554660 -0.413110 0.099050 0.007550 9.765770 12.636077 6.335384 -17.240518 2.670184 -0.473307 4.388264 5.709313 0.036022 2.716747 -1.377475 -0.166030 0.035260 -0.093380 -0.176200 
-16.095380 16.795960 3.370840 -2.252973 36.923230 -3.034877 -15.125676 11.985918 3.785710 7.168935 -2.024400 -26.065442 -4.554883 1.857228 -8.150792 -0.675433 2.489792 3.403765 0.576970 0.404280 0.418770 18.439738 -10.262064 3.374908 2.068633 -3.406662 5.425652 10.438270 -4.489088 -1.893005 -0.741698 -4.418532 2.619706 0.317070 -0.240670 -0.079690 -4.780289 -1.123588 -8.545685 21.071951 0.257335 15.448869 -10.695462 6.103715 -8.700406 0.411591 -8.078943 -9.562001 -16.167918 9.019812 32.794862 12.634810 1.159460 -16.404930 -11.748327 -3.357435 0.723716 12.951086 5.833273 1.421236 10.499149 -13.444712 -0.186676 -3.221947 3.422066 0.564850 -0.424500 0.101170 0.013690 9.890769 12.108293 5.979901 -17.239585 2.915110 -0.420777 4.710804 6.204315 0.084143 2.696888 -1.422973 -0.156990 0.021330 -0.090330 -0.178780 
-16.085800 16.799310 3.376230 -2.176919 36.943001 -2.885109 -15.123932 11.976857 3.794030 7.122359 -2.053179 -25.963235 -4.529558 1.833361 -8.377709 -0.672335 2.505028 3.403926 0.568300 0.392880 0.421170 18.440932 -10.260527 3.375246 1.880797 -3.363556 5.455630 10.547931 -4.489478 -1.976412 -0.744849 -4.425838 2.614264 0.311330 -0.237550 -0.078890 -4.784476 -1.115628 -8.555395 21.112369 0.270967 15.404842 -10.952873 6.114572 -8.909068 0.475216 -8.023298 -9.565948 -16.095360 8.912378 32.963905 12.431410 1.131180 -16.406910 -11.722756 -3.287245 0.639723 12.898666 5.228123 1.328131 9.721412 -12.483135 -0.168420 -3.239845 3.395837 0.565820 -0.422900 0.102120 0.008400 9.724551 11.993057 6.029043 -16.879084 2.695407 -0.334870 4.924698 6.652709 0.150895 2.693864 -1.418489 -0.160420 0.027600 -0.084520 -0.180770 
-16.072330 16.803170 3.382560 -2.158221 37.175689 -2.675275 -15.117382 11.940193 3.785923 6.987897 -2.136474 -25.982015 -4.604445 1.811213 -8.354280 -0.692580 2.519339 3.392501 0.586560 0.394270 0.430640 18.453218 -10.276431 3.364325 1.699722 -3.276658 5.310030 10.734485 -4.510088 -1.917945 -0.752421 -4.442560 2.587655 0.315950 -0.229350 -0.052040 -4.819859 -1.034166 -8.531830 21.242313 0.241487 15.211927 -11.228607 6.048798 -8.948046 0.399847 -8.001477 -9.281205 -15.823885 8.781601 32.188591 12.680720 0.949960 -16.787120 -11.673962 -3.023950 0.427056 12.850416 4.488272 1.310183 8.310224 -11.731600 -0.170830 -3.246683 3.435117 0.570970 -0.424490 0.102840 0.014760 9.748407 11.608572 5.836167 -16.804646 2.448340 -0.229018 5.167423 7.518956 0.251249 2.671875 -1.457361 -0.153600 0.020730 -0.074570 -0.178370 
-16.063450 16.802910 3.386990 -2.016270 37.554852 -2.583739 -15.121337 11.916082 3.785815 6.791967 -2.212947 -25.895430 -4.779162 1.784781 -8.465847 -0.691425 2.510642 3.397203 0.609950 0.426140 0.444820 18.455526 -10.266743 3.371597 1.673107 -3.307870 5.506678 10.548751 -4.439879 -2.291502 -0.766058 -4.458281 2.581201 0.335400 -0.234850 -0.052420 -4.826545 -1.017111 -8.533879 21.099133 0.157321 15.188755 -11.224566 5.880945 -8.886780 0.376764 -7.928234 -9.116940 -15.611816 8.853496 32.037120 12.733550 1.079910 -16.957510 -11.598587 -2.864268 0.335206 12.686761 3.641226 1.199524 8.506862 -10.877996 -0.215057 -3.254461 3.423893 0.566540 -0.425280 0.109110 0.022080 9.694140 11.325208 5.658793 -16.804633 2.460071 -0.145918 5.356350 8.003855 0.301510 2.662558 -1.482202 -0.146890 0.022280 -0.091030 -0.175820 
